<?xml version="1.0" encoding="UTF-8"?> <svg xmlns="http://www.w3.org/2000/svg" width="321.36" height="77.1" viewBox="0 0 321.36 77.1"><defs><style> .a { fill-rule: evenodd; } .b { fill: #1993d0; } </style></defs><g><g><path d="M125.33,54.85c0,3.43-2.59,5.56-6.7,5.56H116v3.94h-4.26V49.28h6.89C122.74,49.28,125.33,51.41,125.33,54.85Zm-4.31,0c0-1.4-.88-2.21-2.65-2.21H116v4.41h2.37C120.14,57.05,121,56.23,121,54.85Z"></path><path d="M130.07,56.81c0-4.52,3.55-7.84,8.38-7.84s8.37,3.32,8.37,7.84-3.55,7.84-8.37,7.84S130.07,61.34,130.07,56.81Zm12.45,0a4.08,4.08,0,1,0-4.07,4.31A4,4,0,0,0,142.52,56.81Z"></path><path d="M151.24,63l1.4-3.14a9.52,9.52,0,0,0,5,1.49c1.77,0,2.46-.5,2.46-1.23,0-2.39-8.57-.65-8.57-6.25,0-2.69,2.2-4.89,6.67-4.89a11.29,11.29,0,0,1,5.47,1.32l-1.31,3.16a8.94,8.94,0,0,0-4.18-1.16c-1.78,0-2.43.6-2.43,1.36,0,2.3,8.55.58,8.55,6.14,0,2.62-2.2,4.86-6.68,4.86A11.79,11.79,0,0,1,151.24,63Z"></path><path d="M168.41,63l1.4-3.14a9.52,9.52,0,0,0,5,1.49c1.77,0,2.46-.5,2.46-1.23,0-2.39-8.58-.65-8.58-6.25,0-2.69,2.2-4.89,6.68-4.89a11.29,11.29,0,0,1,5.47,1.32l-1.31,3.16a9,9,0,0,0-4.18-1.16c-1.79,0-2.43.6-2.43,1.36,0,2.3,8.55.58,8.55,6.14,0,2.62-2.2,4.86-6.68,4.86A11.77,11.77,0,0,1,168.41,63Z"></path><path d="M186.63,49.28h4.26V64.35h-4.26Z"></path><path d="M211.5,60.22c0,2.6-2.15,4.13-6.2,4.13h-8.14V49.28h7.71c4,0,5.9,1.61,5.9,3.94a3.56,3.56,0,0,1-2,3.27A3.81,3.81,0,0,1,211.5,60.22Zm-10.12-7.86v2.9h2.93c1.42,0,2.15-.49,2.15-1.46s-.73-1.44-2.15-1.44Zm5.82,7.38c0-1-.78-1.53-2.24-1.53h-3.58v3.06H205C206.42,61.27,207.2,60.78,207.2,59.74Z"></path><path d="M217,49.28h4.27V64.35H217Z"></path><path d="M227.49,49.28h4.26V61h7.19v3.38H227.49Z"></path><path d="M243.86,49.28h4.26V64.35h-4.26Z"></path><path d="M257.6,52.66H253V49.28h13.5v3.38h-4.61V64.35H257.6Z"></path><path d="M271.3,49.28h4.26V64.35H271.3Z"></path><path d="M293.93,61.06v3.29h-12.1V49.28h11.82v3.29h-7.6v2.54h6.7V58.3h-6.7v2.76Z"></path><path d="M298.48,63l1.4-3.14a9.52,9.52,0,0,0,5,1.49c1.77,0,2.46-.5,2.46-1.23,0-2.39-8.57-.65-8.57-6.25,0-2.69,2.19-4.89,6.67-4.89a11.29,11.29,0,0,1,5.47,1.32l-1.31,3.16a9,9,0,0,0-4.18-1.16c-1.79,0-2.43.6-2.43,1.36,0,2.3,8.55.58,8.55,6.14,0,2.62-2.2,4.86-6.68,4.86A11.77,11.77,0,0,1,298.48,63Z"></path></g><path class="a" d="M103,54.88a1.74,1.74,0,1,1-1.73,1.73A1.74,1.74,0,0,1,103,54.88Z"></path><path class="a" d="M319.62,54.88a1.74,1.74,0,1,1-1.73,1.73,1.74,1.74,0,0,1,1.73-1.73Z"></path><g><path d="M121.77,25.4c0,5.25-4,8.53-10.29,8.53h-4v6H100.9V16.83h10.58C117.8,16.83,121.77,20.1,121.77,25.4Zm-6.62,0c0-2.15-1.35-3.41-4.06-3.41h-3.64v6.78h3.64C113.8,28.77,115.15,27.51,115.15,25.4Z"></path><path d="M129.54,16.83h6.55v18h11V40H129.54Z"></path><path d="M153.88,29.66V16.83h6.55V29.46c0,4,1.65,5.56,4.4,5.56s4.36-1.59,4.36-5.56V16.83h6.45V29.66c0,6.91-4,10.78-10.88,10.78S153.88,36.57,153.88,29.66Z"></path><path d="M205.57,40l-.07-12.27-5.95,10h-2.91L190.72,28V40h-6.05V16.83h5.39l8.13,13.36,7.94-13.36h5.39L211.59,40Z"></path><path d="M242.84,33.63c0,4-3.31,6.35-9.52,6.35H220.81V16.83h11.84c6.09,0,9.06,2.48,9.06,6.05a5.47,5.47,0,0,1-3.1,5A5.85,5.85,0,0,1,242.84,33.63ZM227.3,21.56V26h4.49c2.19,0,3.31-.77,3.31-2.25s-1.12-2.22-3.31-2.22Zm8.93,11.34c0-1.58-1.2-2.35-3.44-2.35H227.3v4.7h5.49C235,35.25,236.23,34.49,236.23,32.9Z"></path><path d="M250.84,16.83h6.55V40h-6.55Z"></path><path d="M288.68,16.83V40h-5.4L273.07,27.64V40h-6.42V16.83H272l10.22,12.34V16.83Z"></path><path d="M313.41,27.91h5.79V37.5a17.25,17.25,0,0,1-9.72,2.94c-7.38,0-12.77-5-12.77-12s5.39-12,12.9-12c4.33,0,7.84,1.49,10.12,4.23l-4.17,3.77a7.22,7.22,0,0,0-5.62-2.58,6.23,6.23,0,0,0-6.61,6.62A6.26,6.26,0,0,0,309.87,35a8.27,8.27,0,0,0,3.54-.76Z"></path></g><g><g><path class="b" d="M25.81,14.43H61.66l.26-.18c1.2-.69,3.32-4.06,3.73-5.63H21.44c.45,1.71,2.91,5.2,4,5.81h.32"></path><rect class="b" x="19.35" width="48.04" height="6.26"></rect></g><path class="b" d="M72.86,16.7H15.2C7.91,16.85,0,24.77,0,34.5v.44c0,9.82,8.07,17.82,15.41,17.82h9.66V77.1a26.7,26.7,0,0,0,4.28-1.39,60.63,60.63,0,0,0,8.11-4.23,24.35,24.35,0,0,0,3.63-2.62,23.11,23.11,0,0,1-3.21.63,14.37,14.37,0,0,1-2.93.23C33,69.65,30.42,69.1,29.76,67c3.08-.21,8.23-.65,10.43-3.31-2.43.86-8.24-.38-9.77-2.86,2.19-.35,7.36-.88,9.46-1.74a4.79,4.79,0,0,0,1.51-.87,3.66,3.66,0,0,0,1-2.14,9.76,9.76,0,0,1-3.08,2.28,4,4,0,0,0,.11-1.62,10.09,10.09,0,0,1-1.54,2.13c0-.44,0-.88-.07-1.31a1.7,1.7,0,0,1-1.78.42A7.57,7.57,0,0,1,32.49,56a27.45,27.45,0,0,0,7.06-2.51A2.35,2.35,0,0,0,41,52a1.9,1.9,0,0,0-1,.36,7.71,7.71,0,0,1-3.58.89l.53-.73a4.51,4.51,0,0,1-2,.63,10.08,10.08,0,0,0,.74-1.38,11.16,11.16,0,0,1-2,.15L37,50.3a2.86,2.86,0,0,0,1.31-1c-.79-.31-1.59-.68-2.37-1a1.55,1.55,0,0,1-.94-.71,3.64,3.64,0,0,0,1.54-.38,2.54,2.54,0,0,1-.9-.6,15.15,15.15,0,0,0,4.08-1,4.35,4.35,0,0,0,1.95-1.28,5.57,5.57,0,0,1-1.86.49,2.59,2.59,0,0,0,.94-1.12c-.29.17-2.69.54-3,.72.52-.59,2.87-1.65,3.1-2.47a19.14,19.14,0,0,0,.56-2.38,5.76,5.76,0,0,1-2.88,1.7,2.19,2.19,0,0,0,1-1,2.51,2.51,0,0,1-3.17-.3c.45-.2.9-.43,1.35-.68a7.55,7.55,0,0,0,3.69-4.14,3.84,3.84,0,0,1-1.94.82,1.84,1.84,0,0,0,.69-.56,3,3,0,0,1-2,0,17.72,17.72,0,0,0,2-.74,2.16,2.16,0,0,0,.63-.38,2.54,2.54,0,0,0,.46-.68,8.67,8.67,0,0,0,.61-1.51,5.29,5.29,0,0,1-1.87,1,3,3,0,0,0,.37-.6,2.84,2.84,0,0,1-1.35.58A10.21,10.21,0,0,0,40.15,32c1-1.11,2.22-6.33,2.58-7.91.65,1.9,2.06,7.19,3.54,8.15a4,4,0,0,1-1.85-.08c.28.27,2,1.2,2.28,1.47a5.4,5.4,0,0,1-2.47-.75,4,4,0,0,0,1,2.26,9.23,9.23,0,0,0,1,1.18,17.34,17.34,0,0,0,3.11,2.22,15.36,15.36,0,0,0,1.46.59,3.21,3.21,0,0,1-3,.46.27.27,0,0,1,.08.07l-.35,0a3,3,0,0,0,.87.59,6.66,6.66,0,0,1-2-.71,6.22,6.22,0,0,1-1.08-.36c0,.14,0,.28.08.41a15.12,15.12,0,0,0,1.18,1.33,2.65,2.65,0,0,1-.74-.11s0,0,0,0c.65.88,4.37,3.06,1.09,2L46,42.36a2.51,2.51,0,0,0,1,1c-.13,0-.25,0-.38-.06a8.44,8.44,0,0,0,.84.85,19.88,19.88,0,0,0,4,.77,2.79,2.79,0,0,1-1,.53,5,5,0,0,0,1.66.33,1.7,1.7,0,0,1-1,.62c-.85.27-1.71.59-2.55.86a3,3,0,0,0,1.4.88l3.64,1.39a15.64,15.64,0,0,1-2.16-.12,8.64,8.64,0,0,0,.8,1.2,4.68,4.68,0,0,1-1.61.08,9.85,9.85,0,0,1-3.86-.77,2.66,2.66,0,0,0-1-.31,13.27,13.27,0,0,0,1.26,1.33,6.86,6.86,0,0,0,.93.5,27.4,27.4,0,0,0,6.88,1.7c-.64.5-1.25,1.06-1.94,1.5a4.47,4.47,0,0,1-4.12.38,5.28,5.28,0,0,1-1.53-1.07,7.21,7.21,0,0,0-.67-.57s-.52-.46-.58-.48a21.19,21.19,0,0,0,1.48,2,4.8,4.8,0,0,0,1.61,1.43,16.67,16.67,0,0,0,4.75,1,7,7,0,0,1-7.31,2.42C49,62.12,55,63.22,58.28,63.4c-.28.75-1.45,1.23-2.11,1.56a7.29,7.29,0,0,1-3,.77,9.9,9.9,0,0,1-1.54-.13,12.29,12.29,0,0,1-1.6-.21,29.6,29.6,0,0,0,3.88,1.55c-.87.35-3.72-.18-4.59-.48C48,66,47,66,45.94,64.9c1.63,3,8,3.42,11.71,4.15-.06,0-.55.4-.64.44a4.72,4.72,0,0,1-1,.37,11.5,11.5,0,0,1-2.55.33,13.43,13.43,0,0,1-5-.71l-1.66-.76a23.16,23.16,0,0,0,3.78,2.76,60.63,60.63,0,0,0,8.11,4.23,27,27,0,0,0,4.11,1.34V52.76h9.83c7.34,0,15.41-8,15.41-17.82V34.5C88.05,24.77,80.14,16.85,72.86,16.7ZM25.07,39.25H15.41c-1.75,0-3.22-2-3.22-4.31V34.5c0-2.34,1.47-4.31,3.22-4.31h9.66Zm50.8-4.54v.23c0,2.34-1.48,4.31-3.23,4.31H62.81V30.19h9.83c1.75,0,3.23,2,3.23,4.31Z"></path></g></g></svg> 